<svg id="그룹_5715" data-name="그룹 5715" xmlns="http://www.w3.org/2000/svg" width="36.326" height="36" viewBox="0 0 36.326 36">
  <g id="그룹_5705" data-name="그룹 5705">
    <path id="패스_3513" data-name="패스 3513" d="M630.167,212.237h-9.082l-4.541,7.865,4.541,7.865h9.082l4.541-7.865Z" transform="translate(-607.463 -204.372)" fill="none"/>
    <path id="패스_3514" data-name="패스 3514" d="M612,224.034h-9.082L612,239.764l4.541-7.865Z" transform="translate(-602.922 -208.304)" fill="#2d1a80"/>
    <path id="패스_3515" data-name="패스 3515" d="M630.167,208.3l4.541-7.865H616.544l4.541,7.865Z" transform="translate(-607.463 -200.44)" fill="#3361ff"/>
    <path id="패스_3516" data-name="패스 3516" d="M641.518,216.169H650.6l-9.081-15.73-4.541,7.865Z" transform="translate(-614.274 -200.44)" fill="#0039ff"/>
    <path id="패스_3517" data-name="패스 3517" d="M630.167,235.831h-9.082l-4.541,7.865h12.92Z" transform="translate(-607.463 -212.237)" fill="#2500be"/>
    <path id="패스_3518" data-name="패스 3518" d="M641.167,247.628h-5.243l7.865,4.541Z" transform="translate(-613.923 -216.169)" fill="#3100ff"/>
    <path id="패스_3519" data-name="패스 3519" d="M636.626,235.831l-.7,7.865h5.243Z" transform="translate(-613.923 -212.237)" fill="#3100ff"/>
    <path id="패스_3520" data-name="패스 3520" d="M616.544,208.3,612,200.44l-9.082,15.73H612Z" transform="translate(-602.922 -200.44)" fill="#4426be"/>
    <path id="패스_3521" data-name="패스 3521" d="M636.978,231.9l7.162,3.324h0l6.46-11.189h-9.081Z" transform="translate(-614.274 -208.304)" fill="#3100ff"/>
    <path id="패스_3522" data-name="패스 3522" d="M641.518,243.7h0l-4.541-7.865Z" transform="translate(-614.274 -212.237)" fill="#0039ff"/>
    <path id="패스_3523" data-name="패스 3523" d="M646.41,249.9v-9.081l-2.622,4.541Z" transform="translate(-616.544 -213.899)" fill="#6687ff"/>
    <path id="패스_3524" data-name="패스 3524" d="M636.978,235.831l4.541,7.865,2.622-4.541h0Z" transform="translate(-614.274 -212.237)" fill="#6687ff"/>
  </g>
</svg>
