<?xml version="1.0" encoding="utf-8"?><svg version="1.1" id="레이어_1" xmlns="http://www.w3.org/2000/svg" xmlns:xlink="http://www.w3.org/1999/xlink" x="0px"y="0px" viewBox="0 0 32 32" style="enable-background:new 0 0 32 32;" xml:space="preserve"><style type="text/css">.st0{fill:#FFFFFF;}.st1{fill:#13C4E8;}.st2{fill:#046CC9;}</style><circle class="st0" cx="16" cy="16" r="14.5"/><path class="st1" d="M16,2c7.7,0,14,6.3,14,14s-6.3,14-14,14S2,23.7,2,16S8.3,2,16,2 M16,1C7.7,1,1,7.7,1,16s6.7,15,15,15s15-6.7,15-15S24.3,1,16,1L16,1z"/><path class="st1" d="M11.6,26v-0.7c1.7,0,3-0.1,3-1.5V8.3c0-1.2-0.5-1.6-2.2-1.6c-3.5,0-4.8,2.1-6,4.1L6,10.6L7.6,6h15.9l1.6,4.8L24.5,11c-1.3-2.2-2.2-4.3-5.5-4.3c-1.8,0-2.7,0.4-2.7,1.6v15.5c0,1.4,1.1,1.5,3,1.5V26H11.6z"/><path class="st2" d="M18.2,20.5c0.6,1.2,1.5,2.7,3.1,2.7c1.1,0,2-0.6,2-2.4c0-1.5-0.7-2-2.4-2.7c-1.3-0.5-2.6-1.3-2.6-3.3c0-1.3,0.6-2.8,2.4-2.8c0.8,0,1.3,0.4,1.6,0.4c0.1,0,0.1,0,0.1,0l0.6-0.3l0.7,2.8L23.6,15c-0.7-1.5-1.6-2.6-2.9-2.6c-0.9,0-1.8,0.6-1.8,2.1c0,1.6,1.1,2.2,2.3,2.7c1.5,0.6,2.8,1.3,2.8,3.2c0,2.2-1.2,3.1-2.6,3.1c-0.8,0-1.5-0.5-1.8-0.5c-0.2,0-0.6,0.2-0.8,0.5L18,20.6L18.2,20.5z"/></svg>
