<svg id="ThingSPIN-logo-gray" xmlns="http://www.w3.org/2000/svg" width="157.182" height="36" viewBox="0 0 157.182 36">
  <g id="그룹_5731" data-name="그룹 5731">
    <g id="그룹_5730" data-name="그룹 5730">
      <path id="패스_3619" data-name="패스 3619" d="M-4668.47-1209.143h-9l-4.5,7.865,4.5,7.865h9l4.5-7.865Z" transform="translate(4690.97 1217.007)" fill="none"/>
      <path id="패스_3620" data-name="패스 3620" d="M-4686.471-1197.345h-9l9,15.73,4.5-7.865Z" transform="translate(4695.47 1213.075)" fill="#cbcbcb"/>
      <path id="패스_3621" data-name="패스 3621" d="M-4668.47-1213.075l4.5-7.865h-18l4.5,7.865Z" transform="translate(4690.97 1220.94)" fill="#fff"/>
      <path id="패스_3622" data-name="패스 3622" d="M-4657.221-1205.21h9l-9-15.729-4.5,7.865Z" transform="translate(4684.22 1220.94)" fill="#e5e5e5"/>
      <path id="패스_3623" data-name="패스 3623" d="M-4668.47-1185.548h-9l-4.5,7.865h12.8Z" transform="translate(4690.97 1209.143)" fill="#b2b2b2"/>
      <path id="패스_3624" data-name="패스 3624" d="M-4657.568-1177.683l-4.5-7.865-.7,7.865,7.794,4.541Z" transform="translate(4684.568 1209.143)" fill="#cbcbcb"/>
      <path id="패스_3625" data-name="패스 3625" d="M-4681.97-1213.075l-4.5-7.865-9,15.729h9Z" transform="translate(4695.47 1220.94)" fill="#e5e5e5"/>
      <path id="패스_3626" data-name="패스 3626" d="M-4661.72-1189.481l7.1,3.324h0l6.4-11.189h-9Z" transform="translate(4684.22 1213.075)" fill="#cbcbcb"/>
      <path id="패스_3627" data-name="패스 3627" d="M-4657.221-1177.683h0l-4.5-7.865Z" transform="translate(4684.22 1209.143)" fill="#0039ff"/>
      <path id="패스_3628" data-name="패스 3628" d="M-4661.72-1185.548l4.5,7.865,2.6,4.541v-9.082Z" transform="translate(4684.22 1209.143)" fill="#fff"/>
    </g>
  </g>
  <g id="그룹_5734" data-name="그룹 5734" transform="translate(41.051 6.811)">
    <g id="그룹_5733" data-name="그룹 5733" transform="translate(0 0)">
      <g id="그룹_5732" data-name="그룹 5732">
        <path id="패스_3629" data-name="패스 3629" d="M-4620.284-1209.988v2.975h-5.027v13.828h-3.534v-13.828h-5.05v-2.975Z" transform="translate(4633.895 1210.478)" fill="#fff"/>
        <path id="패스_3630" data-name="패스 3630" d="M-4601.852-1205.513a3.652,3.652,0,0,1,1.538,1.221,3.255,3.255,0,0,1,.624,1.432,17.624,17.624,0,0,1,.114,2.4v7.3h-3.317v-7.567a3.349,3.349,0,0,0-.34-1.621,1.7,1.7,0,0,0-1.675-.867,2.3,2.3,0,0,0-1.94.862,3.966,3.966,0,0,0-.662,2.459v6.733h-3.249V-1209.9h3.249v5.927a3.967,3.967,0,0,1,1.629-1.51,4.587,4.587,0,0,1,1.947-.428A5.262,5.262,0,0,1-4601.852-1205.513Z" transform="translate(4626.183 1210.449)" fill="#fff"/>
        <path id="패스_3631" data-name="패스 3631" d="M-4586.039-1207.144h-3.295v-3h3.295Zm-3.295,1.482h3.295v12.426h-3.295Z" transform="translate(4619.042 1210.529)" fill="#fff"/>
        <path id="패스_3632" data-name="패스 3632" d="M-4569.64-1202.857a4.112,4.112,0,0,1,1.22,3.346v8.367h-3.329v-7.558a3.481,3.481,0,0,0-.26-1.5,1.829,1.829,0,0,0-1.811-.958,2.245,2.245,0,0,0-2.252,1.4,4.863,4.863,0,0,0-.316,1.892v6.726h-3.249v-12.4h3.146v1.813a5.5,5.5,0,0,1,1.181-1.379,4.092,4.092,0,0,1,2.531-.752A4.763,4.763,0,0,1-4569.64-1202.857Z" transform="translate(4615.809 1208.437)" fill="#fff"/>
        <path id="패스_3633" data-name="패스 3633" d="M-4552.515-1203.581a3.9,3.9,0,0,1,1.913,1.8v-1.79h3.169v11.787a6.606,6.606,0,0,1-.809,3.625q-1.392,2.1-5.335,2.1a7.27,7.27,0,0,1-3.888-.935,3.449,3.449,0,0,1-1.664-2.793h3.534a1.462,1.462,0,0,0,.445.821,2.744,2.744,0,0,0,1.768.445,2.372,2.372,0,0,0,2.347-1.174,5.95,5.95,0,0,0,.388-2.531v-.8a3.957,3.957,0,0,1-1,1.2,4.034,4.034,0,0,1-2.519.741,4.77,4.77,0,0,1-3.826-1.682,6.8,6.8,0,0,1-1.43-4.554,7.68,7.68,0,0,1,1.378-4.657,4.548,4.548,0,0,1,3.905-1.887A4.27,4.27,0,0,1-4552.515-1203.581Zm1.106,8.909a4,4,0,0,0,.784-2.742,4.207,4.207,0,0,0-.744-2.69,2.428,2.428,0,0,0-1.993-.923,2.348,2.348,0,0,0-2.35,1.607,5.72,5.72,0,0,0-.34,2.109,4.832,4.832,0,0,0,.363,1.927,2.368,2.368,0,0,0,2.361,1.573A2.5,2.5,0,0,0-4551.408-1194.672Z" transform="translate(4609.072 1208.437)" fill="#fff"/>
        <path id="패스_3634" data-name="패스 3634" d="M-4534.375-1198.616a3.409,3.409,0,0,0,.641,1.721,3.727,3.727,0,0,0,2.991,1.037,6.427,6.427,0,0,0,2.06-.274,1.955,1.955,0,0,0,1.5-1.949,1.435,1.435,0,0,0-.735-1.288,7.99,7.99,0,0,0-2.333-.786l-1.819-.4a11.324,11.324,0,0,1-3.685-1.289,4.1,4.1,0,0,1-1.7-3.636,4.828,4.828,0,0,1,1.661-3.751,7.082,7.082,0,0,1,4.882-1.493,7.491,7.491,0,0,1,4.587,1.407,5.011,5.011,0,0,1,1.991,4.087h-3.375a2.4,2.4,0,0,0-1.356-2.155,4.639,4.639,0,0,0-2.091-.422,3.986,3.986,0,0,0-2.222.547,1.731,1.731,0,0,0-.829,1.527,1.441,1.441,0,0,0,.818,1.345,10.14,10.14,0,0,0,2.233.7l2.949.7a7.5,7.5,0,0,1,2.905,1.22,4.109,4.109,0,0,1,1.5,3.431,4.822,4.822,0,0,1-1.78,3.825,7.512,7.512,0,0,1-5.03,1.522,8.215,8.215,0,0,1-5.219-1.5,4.96,4.96,0,0,1-1.9-4.121Z" transform="translate(4601.839 1210.723)" fill="#fff"/>
        <path id="패스_3635" data-name="패스 3635" d="M-4501.816-1200.458a6.405,6.405,0,0,1-4.214,1.231h-3.5v6.042h-3.488v-16.8h7.216a5.82,5.82,0,0,1,3.977,1.3,5.073,5.073,0,0,1,1.485,4.025Q-4500.339-1201.689-4501.816-1200.458Zm-2.68-6.053a2.83,2.83,0,0,0-1.869-.558h-3.165v4.947h3.165a2.685,2.685,0,0,0,1.869-.6,2.468,2.468,0,0,0,.667-1.915A2.318,2.318,0,0,0-4504.5-1206.511Z" transform="translate(4593.602 1210.478)" fill="#fff"/>
        <path id="패스_3636" data-name="패스 3636" d="M-4486.717-1193.185h-3.488v-16.8h3.488Z" transform="translate(4585.999 1210.478)" fill="#fff"/>
        <path id="패스_3637" data-name="패스 3637" d="M-4480.134-1209.988h3.682l6.67,11.717v-11.717h3.272v16.8h-3.511l-6.841-11.923v11.923h-3.271Z" transform="translate(4582.642 1210.478)" fill="#fff"/>
      </g>
    </g>
  </g>
</svg>
