<svg xmlns="http://www.w3.org/2000/svg" width="144" height="30.519" viewBox="0 0 144 30.519">
  <g id="그룹_2456" data-name="그룹 2456" transform="translate(-50.331 -233.794)">
    <path id="패스_2307" data-name="패스 2307" d="M655.389,240.556a3.775,3.775,0,0,0-1.562-.223,3.911,3.911,0,0,0-1.579.223.715.715,0,0,0-.446.67v20.432a.716.716,0,0,0,.431.67,3.785,3.785,0,0,0,1.563.223,3.9,3.9,0,0,0,1.578-.223.715.715,0,0,0,.448-.67V241.226A.718.718,0,0,0,655.389,240.556Z" transform="translate(-482.771 -5.249)" fill="#fff"/>
    <g id="그룹_1569" data-name="그룹 1569" transform="translate(50.331 234.032)">
      <path id="패스_2308" data-name="패스 2308" d="M50.331,239.68H65.874a.713.713,0,0,1,.759.476,5.536,5.536,0,0,1,0,2.68.712.712,0,0,1-.759.476h-5.45v17.716a.681.681,0,0,1-.55.7,7,7,0,0,1-3.008,0,.663.663,0,0,1-.55-.67V243.312H50.331Z" transform="translate(-50.331 -238.757)" fill="#fff"/>
      <path id="패스_2309" data-name="패스 2309" d="M155.509,247a1.793,1.793,0,0,0-.908-1.608,4.122,4.122,0,0,0-2.217-.566,4.3,4.3,0,0,0-1.1.15,5.278,5.278,0,0,0-1.013.371,2.838,2.838,0,0,0-.73.507.83.83,0,0,0-.283.581v10.809a.721.721,0,0,1-.4.669,5.375,5.375,0,0,1-3.067,0,.721.721,0,0,1-.4-.669V235h3.871v7.592a6.748,6.748,0,0,1,1.818-.864,7.772,7.772,0,0,1,2.411-.357,6.33,6.33,0,0,1,2.531.476,5.411,5.411,0,0,1,1.846,1.281,5.472,5.472,0,0,1,1.132,1.876,6.536,6.536,0,0,1,.387,2.233v10a.717.717,0,0,1-.417.669,3.666,3.666,0,0,1-1.549.223,3.436,3.436,0,0,1-1.517-.223.725.725,0,0,1-.388-.669Z" transform="translate(-126.626 -235.001)" fill="#fff"/>
      <path id="패스_2310" data-name="패스 2310" d="M235.459,267.742h4.02v15.781a.715.715,0,0,1-.447.669,3.9,3.9,0,0,1-1.578.223,3.778,3.778,0,0,1-1.564-.223.716.716,0,0,1-.432-.669Z" transform="translate(-198.924 -261.281)" fill="#fff"/>
      <path id="패스_2311" data-name="패스 2311" d="M285.3,272.887a1.735,1.735,0,0,0-.908-1.638,4.575,4.575,0,0,0-2.249-.506,4.868,4.868,0,0,0-2.114.492,2.6,2.6,0,0,0-.73.521.877.877,0,0,0-.282.6v10.809a.723.723,0,0,1-.4.669,5.371,5.371,0,0,1-3.066,0,.719.719,0,0,1-.4-.669V267.706h3.781v1.042a5.131,5.131,0,0,1,1.742-1.057,7.281,7.281,0,0,1,2.575-.4,6.637,6.637,0,0,1,2.4.417,5.511,5.511,0,0,1,1.876,1.176,5.242,5.242,0,0,1,1.221,1.816,6.13,6.13,0,0,1,.432,2.338v10.124a.723.723,0,0,1-.4.669,5.371,5.371,0,0,1-3.066,0,.723.723,0,0,1-.4-.669Z" transform="translate(-230.777 -260.917)" fill="#fff"/>
      <path id="패스_2312" data-name="패스 2312" d="M368,287.744a4.065,4.065,0,0,0,1.86-.387,3.246,3.246,0,0,0,1.222-1.058,4.757,4.757,0,0,0,.685-1.563,10.452,10.452,0,0,0,.283-1.936,5.579,5.579,0,0,1-2.011,1.028,8.143,8.143,0,0,1-2.277.343,7.489,7.489,0,0,1-3.275-.686,7.176,7.176,0,0,1-2.412-1.845,8.029,8.029,0,0,1-1.489-2.68,10.593,10.593,0,0,1,.045-6.61,8.29,8.29,0,0,1,1.533-2.68,6.94,6.94,0,0,1,2.324-1.757,7.173,7.173,0,0,1,5.538-.134,5.906,5.906,0,0,1,2.025,1.414v-1.488h3.9v15.3a11.115,11.115,0,0,1-.433,3.141,7.325,7.325,0,0,1-1.354,2.6,6.458,6.458,0,0,1-2.352,1.786,8.172,8.172,0,0,1-3.424.655h-4.587a.844.844,0,0,1-.745-.342,4.144,4.144,0,0,1,0-2.77.844.844,0,0,1,.745-.342Z" transform="translate(-298.954 -260.917)" fill="#fff"/>
    </g>
    <path id="패스_2313" data-name="패스 2313" d="M462.208,260.312a14.874,14.874,0,0,1-6.67-1.638q-.6-.326-.64-.744a4.877,4.877,0,0,1,1.16-2.546.969.969,0,0,1,.82.044q.476.21,1.116.433t1.355.4q.716.179,1.459.3a8.842,8.842,0,0,0,1.4.119,7.848,7.848,0,0,0,3.587-.7,2.264,2.264,0,0,0,1.355-2.128,1.441,1.441,0,0,0-.327-.939,3.926,3.926,0,0,0-.894-.774,8.77,8.77,0,0,0-1.369-.715q-.8-.342-1.727-.76-1.52-.654-2.874-1.3a9.288,9.288,0,0,1-2.517-1.772,5.22,5.22,0,0,1-1.667-3.96,5.642,5.642,0,0,1,.67-2.859,5.394,5.394,0,0,1,1.788-1.875,7.769,7.769,0,0,1,2.529-1.028,13.6,13.6,0,0,1,2.934-.313,9.413,9.413,0,0,1,1.876.193,16.134,16.134,0,0,1,1.772.462,15.787,15.787,0,0,1,1.489.566,9.3,9.3,0,0,1,1.056.536q.506.3.506.67a3.832,3.832,0,0,1-.357,1.236,3.2,3.2,0,0,1-.745,1.28.879.879,0,0,1-.892,0c-.3-.12-.631-.258-1-.418a11.882,11.882,0,0,0-1.175-.431,12.928,12.928,0,0,0-1.3-.328,6.726,6.726,0,0,0-1.324-.134,5.33,5.33,0,0,0-2.712.6,1.968,1.968,0,0,0-1.012,1.815,1.933,1.933,0,0,0,.625,1.4A6.937,6.937,0,0,0,462,246.125a16.771,16.771,0,0,0,1.742.863q.878.372,1.414.581,1.132.447,2.189.938a8.8,8.8,0,0,1,1.89,1.176,6.239,6.239,0,0,1,1.474,1.772,4.887,4.887,0,0,1,.55,2.4,6.126,6.126,0,0,1-.64,2.753,5.631,5.631,0,0,1-1.98,2.189A11.314,11.314,0,0,1,462.208,260.312Z" transform="translate(-324.722 -3.026)" fill="#fff"/>
    <path id="패스_2314" data-name="패스 2314" d="M556.873,261.028a.68.68,0,0,1-.551.7,6.994,6.994,0,0,1-3.008,0,.663.663,0,0,1-.55-.67V239.68h8.782a10.146,10.146,0,0,1,3.455.52,6.22,6.22,0,0,1,2.338,1.445,5.527,5.527,0,0,1,1.324,2.2,8.88,8.88,0,0,1,.417,2.769,8.633,8.633,0,0,1-.417,2.724,5.767,5.767,0,0,1-1.31,2.2,6.121,6.121,0,0,1-2.308,1.474,9.567,9.567,0,0,1-3.379.536h-4.794Z" transform="translate(-403.279 -4.724)" fill="#fff"/>
    <path id="패스_2315" data-name="패스 2315" d="M692.791,239.68h4.854l8.307,15.065V239.68H710v21.943h-4.347l-8.814-15.184v14.589a.678.678,0,0,1-.536.7,6.854,6.854,0,0,1-2.977,0,.66.66,0,0,1-.536-.67Z" transform="translate(-515.671 -4.724)" fill="#fff"/>
    <path id="패스_2316" data-name="패스 2316" d="M379.584,288.169l1.279-.485-.036-1.465-1.238-.442a4.776,4.776,0,0,0-.448-1.135l.591-1.2-1.022-1.049-1.207.519a4.781,4.781,0,0,0-1.312-.576l-.372-1.155-1.464-.039-.478,1.152a4.783,4.783,0,0,0-1.148.424l-1.387-.6-1.022,1.049.6,1.211a4.79,4.79,0,0,0-.6,1.391l-1.238.442-.036,1.465,1.278.485a4.74,4.74,0,0,0,.411,1.059l-.572,1.156,1.021,1.049,1.123-.482a4.746,4.746,0,0,0,1.454.646l.484,1.26h1.464l.444-1.262a4.781,4.781,0,0,0,1.366-.593l1.193.512,1.022-1.049-.589-1.188A4.743,4.743,0,0,0,379.584,288.169Zm-4.631,1.413a2.62,2.62,0,1,1,2.62-2.619A2.624,2.624,0,0,1,374.953,289.583Z" transform="translate(-255.814 -38.008)" fill="#0288d1"/>
    <path id="패스_2317" data-name="패스 2317" d="M573.4,252.346l1.278-.485-.034-1.465-1.24-.442a4.672,4.672,0,0,0-.448-1.134l.591-1.2-1.021-1.049-1.206.519a4.762,4.762,0,0,0-1.312-.575l-.372-1.155-1.465-.039-.478,1.152a4.785,4.785,0,0,0-1.149.424l-1.387-.6-1.023,1.048.6,1.212a4.769,4.769,0,0,0-.6,1.39l-1.239.441-.035,1.465,1.278.485a4.732,4.732,0,0,0,.411,1.06l-.572,1.156L565,255.61l1.122-.481a4.782,4.782,0,0,0,1.454.646l.484,1.26h1.464l.443-1.262a4.78,4.78,0,0,0,1.368-.593l1.192.512,1.021-1.048-.587-1.188A4.832,4.832,0,0,0,573.4,252.346Zm-4.632,1.414a2.62,2.62,0,1,1,2.62-2.619A2.623,2.623,0,0,1,568.771,253.76Z" transform="translate(-411.383 -9.255)" fill="#0288d1"/>
    <path id="패스_2318" data-name="패스 2318" d="M385.371,299.821a2.537,2.537,0,0,1,.773-1.86,2.7,2.7,0,0,1,3.79,0,2.535,2.535,0,0,1,.774,1.86,2.669,2.669,0,1,1-5.337,0Z" transform="translate(-268.92 -50.882)" fill="#fff"/>
    <g id="그룹_1570" data-name="그룹 1570" transform="translate(86.48 233.794)">
      <path id="패스_2319" data-name="패스 2319" d="M233.5,236.176a2.291,2.291,0,0,1,.7-1.682,2.445,2.445,0,0,1,3.425,0,2.3,2.3,0,0,1,.7,1.682,2.411,2.411,0,1,1-4.822,0Z" transform="translate(-233.504 -233.794)" fill="#fff"/>
      <path id="패스_2320" data-name="패스 2320" d="M579.189,263.995a2.536,2.536,0,0,1,.774-1.861,2.7,2.7,0,0,1,3.789,0,2.538,2.538,0,0,1,.773,1.861,2.668,2.668,0,1,1-5.336,0Z" transform="translate(-510.968 -255.919)" fill="#fff"/>
    </g>
  </g>
</svg>
