<?xml version="1.0" encoding="utf-8"?>
<!-- Generator: Adobe Illustrator 23.0.2, SVG Export Plug-In . SVG Version: 6.00 Build 0)  -->
<svg version="1.1" id="thingspin-logo" xmlns="http://www.w3.org/2000/svg" xmlns:xlink="http://www.w3.org/1999/xlink" x="0px"
	 y="0px" viewBox="0 0 510.5 514.8" style="enable-background:new 0 0 510.5 514.8;" xml:space="preserve">
<style type="text/css">
	.st0{fill:url(#SVGID_1_);}
	.st1{fill:url(#SVGID_2_);}
	.st2{fill:url(#SVGID_3_);}
</style>
<radialGradient id="SVGID_1_" cx="255.0281" cy="-260.5614" r="257.4626" gradientTransform="matrix(1 0 0 -1 0 -2)" gradientUnits="userSpaceOnUse">
	<stop  offset="0" style="stop-color:#00B3E3;stop-opacity:0.3871"/>
	<stop  offset="0.8629" style="stop-color:#0087CC"/>
	<stop  offset="0.953" style="stop-color:#0084CB"/>
	<stop  offset="1" style="stop-color:#0083CA"/>
</radialGradient>
<path class="st0" d="M229.5,0c-5.5,13.2-10.9,26.4-16.4,39.6c-3.8,9.2-2.8,8.1-11.6,12c-8,3.5-17,5.2-25.1,8.5
	c-4.7,1.9-12.6,7.7-17.4,7.8c-12.2,0.1-32.3-13.8-43.4-18.5c-14-6-14.1-9.1-24.3,1.4C82.9,59.2,60.4,74.8,56.7,86
	c-2.5,7.9,9.2,23.6,13.3,31.7c2.5,5.1,9.3,14.1,9.9,19.9c0.8,8.7-10.3,22.1-14.1,31.1c-3.8,8.8-5.8,25.8-12.2,31.8
	c-4.2,3.9-15.9,5.7-21.3,7.6c-8.1,2.9-27.1,6.2-30.8,13.3c-5.6,10.9-0.9,37-1.2,49.4c-0.4,15.1,2.9,12.7,17.2,18.2
	c8.6,3.3,17.2,6.5,25.8,9.8c10.9,4.1,9.6,2.5,14.2,12.5c3.7,8,15.6,30.5,15.1,38.8c-0.3,5.7-7.4,14.9-9.9,20
	c-4.4,8.8-15,22.8-12.1,31.1c4,11.3,25.9,27.9,34.9,35.9c10.7,9.6,13.1,4.5,27.1-1.6c6.8-2.9,16-9,23.4-10
	c11.5-1.6,20.6,8.5,31.4,14.7c9.3,5.3,29.7,9.2,36.4,16c3.5,3.5,5,14.2,6.7,18.8c3,8.3,7.4,35.1,14.5,39.8c7.8,5.2,36.3,0,45.8,0
	c15.2,0,16.2,2.6,20.8-11.7c3.9-12,6.5-37.1,15-46.4c5.7-6.3,26-10.1,34.3-14.3c9.2-4.7,19-13.9,28.5-13.1
	c14.7,1.2,31,19.6,45.5,18.5c9.6-0.7,45.4-37.5,45.5-47.1c0.2-14-18.3-30.1-21.5-43.9c-2.1-9.1,1.2-12.2,5.4-21.9
	c4.1-9.4,6.3-26.5,13.4-32.5c12.1-10.2,34.3-8.3,47-17.8c4-2.9,4-0.8,5.7-4.5c2.3-5-0.4-17.5-0.5-22.9c-0.2-8,3.5-31.9-1.3-38.2
	c-6.2-8.1-33.8-11.1-43.2-15.4c-9.1-4.2-7.7-1.6-12-10.9c-3.9-8.6-17.5-34.1-17.1-42c0.6-12,15.4-30.9,20.6-41.7
	c6.2-13,2-12.5-8.5-23.2c-6.2-6.3-21.9-29.6-30.7-31.6c-8.4-1.8-32.1,13.6-39.9,17c-6.8,2.9-9.3,4.8-15.6,3.3
	c-6.5-1.5-14.2-8-20.4-10.9c-8.3-3.8-21.8-5.7-29.2-10.8c-10.4-7.1-12.2-29.2-16.8-41.6c-5-13.3-9.2-9.6-24.1-10
	C257.6,0.8,243.6,0.4,229.5,0L229.5,0z"/>
<radialGradient id="SVGID_2_" cx="250.3407" cy="-272.3538" r="130.4001" gradientTransform="matrix(1 0 0 -1 0 -2)" gradientUnits="userSpaceOnUse">
	<stop  offset="0" style="stop-color:#FFFFFF"/>
	<stop  offset="0.3706" style="stop-color:#FDFDFD"/>
	<stop  offset="0.5834" style="stop-color:#F4F4F4"/>
	<stop  offset="0.7564" style="stop-color:#E6E6E6"/>
	<stop  offset="0.9069" style="stop-color:#D3D3D3"/>
	<stop  offset="0.9471" style="stop-color:#CCCCCC"/>
	<stop  offset="1" style="stop-color:#B3B3B3"/>
</radialGradient>
<path class="st1" d="M246.2,409.5c0-7.4,4.6-35.6,0-40.6c-3.6-3.9-30.8-4-38.1-6.5c-13.8-4.8-26.6-12.2-37.8-21.7
	C127,304,116.7,241,145.6,192.3c29.2-49.3,91.5-73.5,146.1-54.7c53.2,18.2,85,73.7,78.9,128.8C363.2,334,304.4,383,246.2,409.5z"/>
<linearGradient id="SVGID_3_" gradientUnits="userSpaceOnUse" x1="256.0093" y1="-332.8638" x2="256.0093" y2="-187.5628" gradientTransform="matrix(1 0 0 -1 0 -2)">
	<stop  offset="0" style="stop-color:#00B3E3"/>
	<stop  offset="1" style="stop-color:#0082CA"/>
</linearGradient>
<path class="st2" d="M313.5,188.1c0,4,2.7,22,0,24.8c-2.8,2.9-21,0.4-25.5,0.4c-21.3,0-17.1,1.1-17.1,21.7c0,23.4,0,46.8,0,70.2
	c0,4.9,2.5,18.6,0,22.7c-2.7,4.4-8.2,2.6-14.9,2.6c-5.6,0-12.3,1.3-14.9-1.9c-2.7-3.3,0-19.3,0-23.4c0-23.4,0-46.8,0-70.2
	c0-20.6,4.2-21.7-17.2-21.7c-4,0-22.6,2.8-25.6,0c-1.2-1.1-1.2-24.1,0-25.2c5.7-5.7,47.5,0,55.4,0
	C273.6,188.1,293.5,188.1,313.5,188.1z"/>
</svg>
