<svg id="ThingSPIN-logo" xmlns="http://www.w3.org/2000/svg" width="139.718" height="32" viewBox="0 0 139.718 32">
  <g id="그룹_5810" data-name="그룹 5810" transform="translate(36.49 6.054)">
    <path id="패스_3672" data-name="패스 3672" d="M-4546.039-1044.284v2.645h-4.469v12.292h-3.141v-12.292h-4.489v-2.645Z" transform="translate(4558.138 1044.72)" fill="#0039ff"/>
    <path id="패스_3673" data-name="패스 3673" d="M-4527.083-1040.3a3.256,3.256,0,0,1,1.368,1.086,2.891,2.891,0,0,1,.554,1.273,15.7,15.7,0,0,1,.1,2.135v6.491h-2.949v-6.726a2.98,2.98,0,0,0-.3-1.441,1.511,1.511,0,0,0-1.489-.771,2.04,2.04,0,0,0-1.724.766,3.521,3.521,0,0,0-.589,2.186v5.985H-4535V-1044.2h2.888v5.269a3.532,3.532,0,0,1,1.448-1.343,4.075,4.075,0,0,1,1.731-.38A4.675,4.675,0,0,1-4527.083-1040.3Z" transform="translate(4548.711 1044.685)" fill="#0039ff"/>
    <path id="패스_3674" data-name="패스 3674" d="M-4510.646-1041.772h-2.929v-2.666h2.929Zm-2.929,1.317h2.929v11.045h-2.929Z" transform="translate(4539.983 1044.782)" fill="#0039ff"/>
    <path id="패스_3675" data-name="패스 3675" d="M-4494.992-1037.266a3.657,3.657,0,0,1,1.084,2.974v7.438h-2.958v-6.718a3.1,3.1,0,0,0-.231-1.338,1.627,1.627,0,0,0-1.61-.851,2,2,0,0,0-2,1.246,4.314,4.314,0,0,0-.282,1.682v5.979h-2.888v-11.025h2.8v1.611a4.911,4.911,0,0,1,1.05-1.226,3.641,3.641,0,0,1,2.251-.668A4.235,4.235,0,0,1-4494.992-1037.266Z" transform="translate(4536.032 1042.225)" fill="#0039ff"/>
    <path id="패스_3676" data-name="패스 3676" d="M-4477.524-1037.909a3.47,3.47,0,0,1,1.7,1.6v-1.591h2.817v10.478a5.863,5.863,0,0,1-.72,3.222q-1.237,1.865-4.742,1.865a6.465,6.465,0,0,1-3.456-.831,3.065,3.065,0,0,1-1.479-2.483h3.141a1.3,1.3,0,0,0,.4.729,2.436,2.436,0,0,0,1.57.4,2.112,2.112,0,0,0,2.088-1.044,5.3,5.3,0,0,0,.344-2.25v-.709a3.527,3.527,0,0,1-.892,1.064,3.587,3.587,0,0,1-2.24.659,4.239,4.239,0,0,1-3.4-1.495,6.045,6.045,0,0,1-1.271-4.049,6.83,6.83,0,0,1,1.225-4.139,4.043,4.043,0,0,1,3.472-1.677A3.8,3.8,0,0,1-4477.524-1037.909Zm.984,7.919a3.555,3.555,0,0,0,.7-2.437,3.734,3.734,0,0,0-.661-2.391,2.155,2.155,0,0,0-1.77-.821,2.088,2.088,0,0,0-2.09,1.429,5.09,5.09,0,0,0-.3,1.875,4.283,4.283,0,0,0,.323,1.713,2.1,2.1,0,0,0,2.1,1.4A2.219,2.219,0,0,0-4476.541-1029.99Z" transform="translate(4527.798 1042.225)" fill="#0039ff"/>
    <path id="패스_3677" data-name="패스 3677" d="M-4458.989-1034.258a3.032,3.032,0,0,0,.569,1.53,3.313,3.313,0,0,0,2.659.922,5.729,5.729,0,0,0,1.832-.243,1.738,1.738,0,0,0,1.334-1.733,1.279,1.279,0,0,0-.653-1.145,7.111,7.111,0,0,0-2.074-.7l-1.617-.354a10.082,10.082,0,0,1-3.275-1.145,3.643,3.643,0,0,1-1.51-3.233,4.294,4.294,0,0,1,1.477-3.334,6.3,6.3,0,0,1,4.34-1.327,6.651,6.651,0,0,1,4.077,1.252,4.446,4.446,0,0,1,1.77,3.632h-3a2.136,2.136,0,0,0-1.206-1.915,4.117,4.117,0,0,0-1.858-.375,3.545,3.545,0,0,0-1.975.486,1.539,1.539,0,0,0-.737,1.358,1.281,1.281,0,0,0,.728,1.2,9.03,9.03,0,0,0,1.985.618l2.621.618a6.678,6.678,0,0,1,2.583,1.084,3.655,3.655,0,0,1,1.336,3.05,4.286,4.286,0,0,1-1.582,3.4,6.681,6.681,0,0,1-4.472,1.353,7.3,7.3,0,0,1-4.639-1.333,4.408,4.408,0,0,1-1.69-3.663Z" transform="translate(4518.958 1045.019)" fill="#0039ff"/>
    <path id="패스_3678" data-name="패스 3678" d="M-4427.3-1035.813a5.688,5.688,0,0,1-3.745,1.095h-3.111v5.371h-3.1v-14.936h6.413a5.175,5.175,0,0,1,3.536,1.155,4.507,4.507,0,0,1,1.319,3.578A4.633,4.633,0,0,1-4427.3-1035.813Zm-2.382-5.38a2.511,2.511,0,0,0-1.661-.5h-2.812v4.4h2.813a2.385,2.385,0,0,0,1.661-.537,2.189,2.189,0,0,0,.593-1.7A2.055,2.055,0,0,0-4429.685-1041.193Z" transform="translate(4508.891 1044.72)" fill="#0039ff"/>
    <path id="패스_3679" data-name="패스 3679" d="M-4411.347-1029.348h-3.1v-14.936h3.1Z" transform="translate(4499.598 1044.72)" fill="#0039ff"/>
    <path id="패스_3680" data-name="패스 3680" d="M-4404.376-1044.284h3.273l5.928,10.415v-10.415h2.909v14.936h-3.12l-6.081-10.6v10.6h-2.908Z" transform="translate(4495.494 1044.72)" fill="#0039ff"/>
  </g>
  <g id="그룹_5812" data-name="그룹 5812">
    <g id="그룹_5811" data-name="그룹 5811">
      <path id="패스_3681" data-name="패스 3681" d="M-4594.212-1043.439h-8l-4,6.991,4,6.991h8l4-6.991Z" transform="translate(4614.212 1050.43)" fill="none"/>
      <path id="패스_3682" data-name="패스 3682" d="M-4611.712-1031.641h-8l8,13.982,4-6.991Z" transform="translate(4619.712 1045.623)" fill="#5a0dff"/>
      <path id="패스_3683" data-name="패스 3683" d="M-4594.212-1048.245l4-6.991h-16l4,6.991Z" transform="translate(4614.212 1055.236)" fill="#68f"/>
      <path id="패스_3684" data-name="패스 3684" d="M-4581.962-1041.254h8l-8-13.982-4,6.991Z" transform="translate(4605.962 1055.236)" fill="#0039ff"/>
      <path id="패스_3685" data-name="패스 3685" d="M-4594.212-1019.844h-8l-4,6.991h11.381Z" transform="translate(4614.212 1040.817)" fill="#2500be"/>
      <path id="패스_3686" data-name="패스 3686" d="M-4582.388-1012.853l-4-6.991-.619,6.991,6.928,4.036Z" transform="translate(4606.388 1040.817)" fill="#3100ff"/>
      <path id="패스_3687" data-name="패스 3687" d="M-4607.712-1048.245l-4-6.991-8,13.982h8Z" transform="translate(4619.712 1055.236)" fill="#7b72ff"/>
      <path id="패스_3688" data-name="패스 3688" d="M-4585.962-1024.65l6.31,2.955h0l5.69-9.946h-8Z" transform="translate(4605.962 1045.623)" fill="#3100ff"/>
      <path id="패스_3689" data-name="패스 3689" d="M-4581.962-1012.853h0l-4-6.991Z" transform="translate(4605.962 1040.817)" fill="#0039ff"/>
      <path id="패스_3690" data-name="패스 3690" d="M-4585.962-1019.844l4,6.991,2.31,4.036v-8.073Z" transform="translate(4605.962 1040.817)" fill="#68f"/>
    </g>
  </g>
</svg>
