<svg xmlns="http://www.w3.org/2000/svg" width="20" height="20" viewBox="0 0 20 20">
  <g id="그룹_6227" data-name="그룹 6227" transform="translate(-224 -82)">
    <rect id="사각형_18822" data-name="사각형 18822" width="20" height="20" transform="translate(224 82)" fill="none"/>
    <g id="그룹_5787" data-name="그룹 5787" transform="translate(4635.831 1320.143)">
      <g id="그룹_5786" data-name="그룹 5786" transform="translate(-4411.831 -1237.142)">
        <path id="패스_3652" data-name="패스 3652" d="M-4406.831-1213.548h-5l5,8.739,2.5-4.369Z" transform="translate(4411.831 1222.286)" fill="#0039ff"/>
        <path id="패스_3653" data-name="패스 3653" d="M-4390.831-1232.773l2.5-4.369h-10l2.5,4.369Z" transform="translate(4403.331 1237.142)" fill="#0039ff"/>
        <path id="패스_3654" data-name="패스 3654" d="M-4375.581-1228.4h5l-5-8.739-2.5,4.369Z" transform="translate(4390.581 1237.142)" fill="#0039ff"/>
        <path id="패스_3655" data-name="패스 3655" d="M-4390.831-1201.75h-5l-2.5,4.369h10Z" transform="translate(4403.331 1214.858)" fill="#0039ff"/>
        <path id="패스_3656" data-name="패스 3656" d="M-4404.331-1232.773l-2.5-4.369-5,8.739h5Z" transform="translate(4411.831 1237.142)" fill="#0039ff"/>
        <path id="패스_3657" data-name="패스 3657" d="M-4378.081-1209.178l2.5,4.369,5-8.739h-5Z" transform="translate(4390.581 1222.286)" fill="#0039ff"/>
        <path id="패스_3658" data-name="패스 3658" d="M-4375.581-1197.381h0l-2.5-4.369Z" transform="translate(4390.581 1214.858)" fill="#0039ff"/>
      </g>
    </g>
  </g>
</svg>
