<svg xmlns="http://www.w3.org/2000/svg" width="31.5" height="33.992" viewBox="0 0 31.5 33.992">
  <g id="수집노드" transform="translate(0.75 0.75)">
    <rect id="사각형_18967" data-name="사각형 18967" width="29.968" height="19.147" transform="translate(0 13.319)" fill="#f2f5ff"/>
    <rect id="사각형_18968" data-name="사각형 18968" width="29.968" height="4.162" transform="translate(0 9.157)" fill="#ccd7ff"/>
    <g id="그룹_6037" data-name="그룹 6037">
      <g id="그룹_6035" data-name="그룹 6035" transform="translate(0 8.767)">
        <g id="그룹_6033" data-name="그룹 6033">
          <line id="선_1187" data-name="선 1187" x2="29.302" transform="translate(0.209 4.412)" fill="none" stroke="#0039ff" stroke-linecap="round" stroke-linejoin="round" stroke-width="1.5"/>
          <circle id="타원_793" data-name="타원 793" cx="0.216" cy="0.216" r="0.216" transform="translate(2.692 2.032)" stroke-width="1.5" stroke="#0039ff" stroke-linecap="round" stroke-linejoin="round" fill="none"/>
          <circle id="타원_794" data-name="타원 794" cx="0.216" cy="0.216" r="0.216" transform="translate(4.689 2.032)" stroke-width="1.5" stroke="#0039ff" stroke-linecap="round" stroke-linejoin="round" fill="none"/>
          <circle id="타원_795" data-name="타원 795" cx="0.216" cy="0.216" r="0.216" transform="translate(6.687 2.032)" stroke-width="1.5" stroke="#0039ff" stroke-linecap="round" stroke-linejoin="round" fill="none"/>
          <rect id="사각형_18966" data-name="사각형 18966" width="30" height="23.725" rx="0.8" fill="none" stroke="#0039ff" stroke-linecap="round" stroke-linejoin="round" stroke-width="1.5"/>
        </g>
        <g id="그룹_6034" data-name="그룹 6034" transform="translate(5.864 8.757)">
          <path id="패스_3816" data-name="패스 3816" d="M743.81,101.439l4.73,3.6a.213.213,0,0,1,0,.313l-4.73,3.6" transform="translate(-730.711 -99.914)" fill="none" stroke="#0039ff" stroke-linecap="round" stroke-linejoin="round" stroke-width="1.5"/>
          <path id="패스_3817" data-name="패스 3817" d="M733.037,101.219,728.15,104.6a.213.213,0,0,0-.013.312l4.564,3.8" transform="translate(-728.075 -99.877)" fill="none" stroke="#0039ff" stroke-linecap="round" stroke-linejoin="round" stroke-width="1.5"/>
          <line id="선_1188" data-name="선 1188" x1="3.794" y2="9.957" transform="translate(7.1)" fill="none" stroke="#0039ff" stroke-linecap="round" stroke-linejoin="round" stroke-width="1.5"/>
        </g>
      </g>
      <g id="그룹_6036" data-name="그룹 6036" transform="translate(8.634)">
        <path id="패스_3818" data-name="패스 3818" d="M731.4,81.172c1.2-1.675,3.849-2.616,6.317-2.616,2.538,0,5.263,1,6.416,2.761" transform="translate(-731.402 -78.556)" fill="none" stroke="#0039ff" stroke-linecap="round" stroke-linejoin="round" stroke-width="1.5"/>
        <path id="패스_3819" data-name="패스 3819" d="M734.354,84.734a4.931,4.931,0,0,1,3.878-1.607,4.837,4.837,0,0,1,3.939,1.7" transform="translate(-731.897 -79.322)" fill="none" stroke="#0039ff" stroke-linecap="round" stroke-linejoin="round" stroke-width="1.5"/>
      </g>
    </g>
  </g>
</svg>
