<?xml version="1.0" encoding="utf-8"?>
<!-- Generator: Adobe Illustrator 23.0.2, SVG Export Plug-In . SVG Version: 6.00 Build 0)  -->
<svg version="1.1" id="Layer_1" xmlns="http://www.w3.org/2000/svg" xmlns:xlink="http://www.w3.org/1999/xlink" x="0px" y="0px"
	 viewBox="0 0 168 63.6" style="enable-background:new 0 0 168 63.6;" xml:space="preserve">
<style type="text/css">
	.st0{fill:#E6E7E8;}
</style>
<g>
	<path class="st0" d="M31.7,51.9c0.4,2.4,2.3,4.1,4.5,4.1c1.7,0,3.2-1,4.1-1.9l1.1,1.3c-1.4,1.7-3.4,2.4-5.2,2.4
		c-3.8,0-6.4-3.2-6.4-6.6c0-3.6,2.8-6.2,6.2-6.2c3.6,0,6.3,2.8,6.3,7L31.7,51.9L31.7,51.9z M40.5,50.5c-0.3-2.2-2.2-3.9-4.4-3.9
		c-2,0-4,1.4-4.4,3.9H40.5z"/>
	<path class="st0" d="M55.4,50.1v7.5h-1.7v-7.5c0-1.9-1.6-3.5-3.5-3.5s-3.5,1.6-3.5,3.5v7.5H45V45.2h1.5v1.3
		c0.9-0.9,2.3-1.5,3.7-1.5C53.1,45,55.4,47.3,55.4,50.1z"/>
	<path class="st0" d="M58.4,53.5V41.2h1.7v3.9h4.3v1.5h-4.3v6.8c0,1.3,1,2.3,2.3,2.3h2v1.7h-2C60.1,57.6,58.4,55.9,58.4,53.5z"/>
	<path class="st0" d="M67.6,51.9c0.4,2.4,2.3,4.1,4.5,4.1c1.7,0,3.2-1,4.1-1.9l1.1,1.3c-1.4,1.7-3.4,2.4-5.2,2.4
		c-3.8,0-6.4-3.2-6.4-6.6c0-3.6,2.8-6.2,6.2-6.2c3.6,0,6.3,2.8,6.3,7L67.6,51.9L67.6,51.9z M76.4,50.5c-0.3-2.2-2.2-3.9-4.4-3.9
		c-2,0-4,1.4-4.4,3.9H76.4z"/>
	<path class="st0" d="M87.4,46.8h-1.3c-1.9,0-3.4,1.2-3.4,3.1v7.6H81V45.2h1.5v1.3c0.6-0.8,1.9-1.3,3.3-1.3h1.6V46.8z"/>
	<path class="st0" d="M91.2,55.8v6.8h-1.7V45.2H91v2.1c1.2-1.4,2.9-2.3,4.9-2.3c3.6,0,6.4,2.9,6.4,6.4c0,3.6-2.9,6.4-6.4,6.4
		C94.1,57.8,92.4,57,91.2,55.8z M91.2,51.4c0,2.6,2.1,4.7,4.7,4.7s4.7-2.1,4.7-4.7s-2.1-4.6-4.7-4.6C93.3,46.7,91.2,48.8,91.2,51.4z
		"/>
	<path class="st0" d="M111.5,46.8h-1.3c-1.9,0-3.4,1.2-3.4,3.1v7.6H105V45.2h1.5v1.3c0.6-0.8,1.9-1.3,3.3-1.3h1.6L111.5,46.8
		L111.5,46.8z"/>
	<path class="st0" d="M115.8,42.8c0,0.7-0.5,1.1-1.2,1.1c-0.6,0-1.1-0.5-1.1-1.1s0.5-1.1,1.1-1.1C115.3,41.6,115.8,42.2,115.8,42.8z
		 M115.5,57.6h-1.8V45.2h1.8V57.6z"/>
	<path class="st0" d="M125.7,46l-0.8,1.3c-0.4-0.3-1.4-0.9-2.6-0.9c-1.3,0-2.4,0.6-2.4,1.7c0,1.1,1.3,1.5,2.5,2c2,0.7,3.8,2.1,3.8,4
		c0,2-1.8,3.6-4,3.6c-1.3,0-2.8-0.5-4-1.1l0.7-1.6c0.8,0.5,2,0.9,3.1,0.9c1.6,0,2.4-1,2.4-2c0-1.1-0.9-1.7-2.9-2.4
		c-1.4-0.5-3.3-1.3-3.3-3.3s1.7-3.3,4-3.3C123.8,45,124.9,45.5,125.7,46z"/>
	<path class="st0" d="M130.1,51.9c0.4,2.4,2.3,4.1,4.5,4.1c1.7,0,3.2-1,4.1-1.9l1.1,1.3c-1.4,1.7-3.4,2.4-5.2,2.4
		c-3.8,0-6.4-3.2-6.4-6.6c0-3.6,2.8-6.2,6.2-6.2c3.6,0,6.3,2.8,6.3,7L130.1,51.9L130.1,51.9z M138.8,50.5c-0.3-2.2-2.2-3.9-4.4-3.9
		c-2,0-4,1.4-4.4,3.9H138.8z"/>
</g>
<g>
	<path class="st0" d="M0.5,6.3h17.2v4.1h-6.2v21H6.7v-21H0.5V6.3z"/>
	<path class="st0" d="M21,4.8h4.7V14c1.2-1.7,3.3-2.8,5.8-2.8c4.2,0,7.2,3,7.2,8.5v11.7H34v-11c0-3.2-1.6-4.9-4.1-4.9
		c-2.5,0-4.2,1.7-4.2,4.9v11H21V4.8z"/>
	<path class="st0" d="M42.7,6.2c0-1.7,1.2-2.9,2.9-2.9c1.6,0,2.9,1.3,2.9,2.9s-1.2,2.9-2.9,2.9C43.9,9.1,42.7,7.8,42.7,6.2z
		 M43.2,11.5h4.7v19.9h-4.7V11.5z"/>
	<path class="st0" d="M65.5,20.4c0-3.2-1.6-4.9-4.1-4.9c-2.5,0-4.2,1.7-4.2,4.9v11h-4.7V11.5h4.7V14c1.2-1.7,3.2-2.8,5.6-2.8
		c4.3,0,7.4,3,7.4,8.5v11.7h-4.7V20.4z"/>
	<path class="st0" d="M82,11.2c2.9,0,5,1.4,6.1,3.2v-2.8h4.7v20c0,5.4-3.1,9.7-9.2,9.7c-5.2,0-8.9-2.8-9.4-7.4h4.7
		c0.5,1.8,2.2,3,4.6,3c2.6,0,4.6-1.6,4.6-5.3v-3.1c-1.1,1.7-3.2,3.3-6.1,3.3c-4.7,0-8.5-4.1-8.5-10.3S77.2,11.2,82,11.2z M83.2,15.6
		c-2.5,0-4.9,2-4.9,5.8s2.4,5.9,4.9,5.9c2.6,0,4.9-2.1,4.9-5.9S85.7,15.6,83.2,15.6z"/>
	<path class="st0" d="M105.5,31.6c-4.9,0-8.6-2.7-8.7-7.5h5c0.1,2,1.4,3.3,3.6,3.3c2.2,0,3.5-1.3,3.5-3.1c0-5.4-12.1-2.2-12-11.2
		c0-4.5,3.4-7.3,8.2-7.3c4.8,0,8.1,2.6,8.4,7.1h-5.2c-0.1-1.7-1.3-2.9-3.4-3c-1.8-0.1-3.2,0.9-3.2,2.9c0,5,12,2.2,12,11.1
		C113.8,28.1,110.8,31.6,105.5,31.6z"/>
	<path class="st0" d="M126.4,21.8h-3.9v9.6h-4.7V6.3h8.6c5.6,0,8.4,3.4,8.4,7.8C134.9,17.9,132.5,21.8,126.4,21.8z M126.2,17.7
		c2.6,0,3.8-1.4,3.8-3.6c0-2.3-1.2-3.7-3.8-3.7h-3.7v7.3H126.2z"/>
	<path class="st0" d="M138.2,6.3h4.7v25.1h-4.7V6.3z"/>
	<path class="st0" d="M167.5,6.3v25.1h-4.7l-10.6-17.2v17.2h-4.7V6.3h4.7l10.6,17.2V6.3H167.5z"/>
</g>
</svg>
