<?xml version="1.0" encoding="utf-8"?>
<!-- Generator: Adobe Illustrator 23.0.2, SVG Export Plug-In . SVG Version: 6.00 Build 0)  -->
<svg version="1.1" id="Layer_1" xmlns="http://www.w3.org/2000/svg" xmlns:xlink="http://www.w3.org/1999/xlink" x="0px" y="0px"
	 viewBox="0 0 168 36.6" style="enable-background:new 0 0 168 36.6;" xml:space="preserve">
<style type="text/css">
	.st0{fill:#FDFDFD;}
</style>
<g>
	<path class="st0" d="M6.6,4.3l-1.9,5.8l0.5,0.3c1.4-2.5,3.1-5.2,7.4-5.2c2.1,0,2.7,0.6,2.7,2v19.6c0,1.8-1.7,1.9-3.7,1.9v0.9H21
		v-0.9c-2.4,0-3.7-0.2-3.7-1.9V7.3c0-1.5,1-2,3.3-2c4.1,0,5.2,2.6,6.8,5.4l0.6-0.2L26,4.3H6.6z"/>
	<path class="st0" d="M43.1,26.9V17c0-3.2-1.7-4.5-4.3-4.5c-2.7,0-4.5,1.8-5.9,3V4l-4.1,1.8l0.1,0.6c1.5,0,2,0.4,2,1.9v18.7
		c0,1.3-0.6,1.8-2.2,1.8v0.9h6.4v-0.9c-1.6,0-2.3-0.5-2.3-1.8V16.8c1.3-1.4,2.7-2.5,5-2.5c2.5,0,3.2,1.3,3.2,3.4v9.2
		c0,1.3-0.5,1.8-2.2,1.8v0.9h6.4v-0.9C43.8,28.7,43.1,28.2,43.1,26.9z"/>
	<path class="st0" d="M49.8,7.2c1.1,0,1.7-0.9,1.7-1.8c0-0.9-0.6-1.8-1.7-1.8c-1.2,0-1.7,0.9-1.7,1.8C48,6.3,48.6,7.2,49.8,7.2z"/>
	<path class="st0" d="M50.7,27V12.6l-4.3,1.6l0.1,0.5c1.8,0,2.2,0.7,2.2,1.6V27c0,1.4-0.7,1.7-2.2,1.7v0.9h6.3v-0.9
		C51.2,28.7,50.7,28.4,50.7,27z"/>
	<path class="st0" d="M68.4,26.7v-9c0-3.1-1.5-5-4.2-5c-2.7,0-4.5,1.8-6,3.1v-3.1l-4.1,1.4l0.1,0.6c1.7,0,2.1,0.4,2.1,1.9v10.3
		c0,1.5-0.5,2.1-2.2,2.1v0.9h6.3v-0.9c-1.5,0-2.2-0.5-2.2-2.1v-9.9c1.6-1.5,3.2-2.6,5.4-2.6c2.2,0,2.8,1.4,2.8,3.3v9.2
		c0,1.5-0.6,2.1-2.2,2.1v0.9h6.3v-0.9C69.1,28.7,68.4,28.2,68.4,26.7z"/>
	<path class="st0" d="M86.4,12.4c-0.9,0-1.9,0.6-2.8,1.6c-0.7-0.7-2.1-1.4-4.4-1.4c-3.4,0-6.1,2-6.2,5.6c0,2.3,1.1,4,2.9,5
		c-1,0.4-2.8,1.1-2.8,2.1c0,1,0.8,1.6,3.3,2.1c-1.9,0.5-4.7,1.8-4.7,3.5c0,2.3,2.2,3.7,7.6,3.7c4.4,0,7.9-1,7.9-4
		c0-2.3-1.8-3.3-4.2-3.7c-2-0.4-4.7-0.8-6.6-1.2c-1.2-0.2-1.3-0.8-1.3-1.2c0-0.5,0.7-0.8,1.6-1.1c0.8,0.2,1.4,0.3,2,0.3
		c6.2,0,6.5-4.3,6.5-5.5c0-1.3-0.4-2.6-1.1-3.6c0.4-0.3,0.6-0.4,0.9-0.4c0.6,0,1,0.6,1.7,0.6c0.7,0,1.1-0.6,1.1-1.3
		C87.9,12.8,87.1,12.4,86.4,12.4z M78,27.9c1.9,0.2,3.2,0.5,4.2,0.7c2.2,0.4,3.2,1.4,3.2,2.6c0,1.4-2.4,2.5-5.6,2.5
		c-4.1,0-6.2-1.1-6.2-2.6C73.6,29.9,74.7,28.7,78,27.9z M79.3,22.9c-2.8,0-4.1-2.4-4.1-4.7c0-2.4,1.2-4.7,4.1-4.7c2.8,0,4,2.4,4,4.7
		C83.3,20.5,82,22.9,79.3,22.9z"/>
	<path class="st0" d="M99.1,15.7c-3.5-1-6.7-2.4-6.7-6.2c0-3.6,2.5-4.9,5.1-4.9c3.8,0,6.4,2.6,8.4,6.1l0.5-0.4L104.3,4l-1.6,0.6
		c-0.1,0.1-0.2,0.1-0.4,0.1c-0.9,0-2.3-1-4.6-1c-5.3,0-7,3.4-7,6.4c0,4.6,3.9,6.3,7.6,7.5c5.1,1.6,7,2.7,7,6.2
		c0,4.1-2.5,5.5-5.8,5.5c-4.6,0-7.3-3.3-9.1-6.2l-0.7,0.3l2.3,6.7c0.7-0.6,1.7-1.1,2.4-1.1c0.8,0,2.8,1.1,5.1,1.1
		c4.2,0,7.6-2.1,7.6-7.1C107.2,18.6,103.6,17,99.1,15.7z"/>
	<path class="st0" d="M121.3,4.3h-12.2v0.9c2.4,0,3.1,0.5,3.1,2.2v18.7c0,1.7-0.7,2.6-3.1,2.6v0.9h8.6v-0.9c-2.7,0-3.4-0.9-3.4-2.6
		v-8.4h6.7c3.9,0,6.9-2.5,6.9-7C127.9,6.6,124.9,4.3,121.3,4.3z M120.4,16.8h-6.2V7.4c0-1.7,0.7-2.2,2.3-2.2h3.9
		c3.4,0,5.2,2.6,5.2,5.5C125.6,13.5,123.9,16.8,120.4,16.8z"/>
	<path class="st0" d="M129.7,5.2c2.6,0,3.4,0.5,3.4,2.3v19.2c0,1.4-0.9,2.1-3.4,2.1v0.9h8.8v-0.9c-2.6,0-3.4-0.7-3.4-2.1V7.5
		c0-1.8,0.9-2.3,3.4-2.3V4.3h-8.8V5.2z"/>
	<path class="st0" d="M155.8,4.3v0.9c2.6,0,3.4,0.6,3.4,1.9v18.4L144.3,4.3h-4.4v0.9c2.3,0,3.1,0.7,3.1,2.4v18.7
		c0,1.8-0.8,2.4-3.1,2.4v0.9h7.5v-0.9c-2.7,0-3.4-0.7-3.4-2.4v-19l15.7,22.5h0.5V7.1c0-1.3,1-1.9,3.1-1.9V4.3H155.8z"/>
</g>
</svg>
