<svg id="mqtt" xmlns="http://www.w3.org/2000/svg" width="42" height="42" viewBox="0 0 42 42">
  <rect id="사각형_18972" data-name="사각형 18972" width="42" height="42" rx="4" fill="#e0f2f1"/>
  <g id="사각형_18973" data-name="사각형 18973" transform="translate(2.1 2.1)" fill="#00897b" stroke="#00796b" stroke-width="1">
    <rect width="37.8" height="37.8" rx="4" stroke="none"/>
    <rect x="-0.5" y="-0.5" width="38.8" height="38.8" rx="4.5" fill="none"/>
  </g>
  <path id="빼기_18" data-name="빼기 18" d="M32.57,36.57H2.77A3.975,3.975,0,0,1-.059,35.4L35.4-.059A3.974,3.974,0,0,1,36.57,2.77v29.8A4,4,0,0,1,32.57,36.57Z" transform="translate(3.33 3.33)" fill="#009688"/>
  <g id="그룹_6059" data-name="그룹 6059" transform="translate(8.4 8.4)">
    <g id="그룹_5537" data-name="그룹 5537" transform="translate(0 0)">
      <g id="그룹_5536" data-name="그룹 5536">
        <rect id="사각형_18764" data-name="사각형 18764" width="25.2" height="25.2" fill="none"/>
      </g>
    </g>
    <g id="그룹_5538" data-name="그룹 5538" transform="translate(3.15 3.15)">
      <path id="패스_3161" data-name="패스 3161" d="M5.779,5H5V7.924A14.058,14.058,0,0,1,16.777,19.7H19.7v-.78A17.081,17.081,0,0,0,5.779,5Z" transform="translate(-2.9 -2.9)" fill="none"/>
      <path id="패스_3162" data-name="패스 3162" d="M5,9.3V19.485H15.185A12.488,12.488,0,0,0,5,9.3Z" transform="translate(-2.9 -2.685)" fill="none"/>
      <path id="패스_3163" data-name="패스 3163" d="M14.727,5H10.634a18.734,18.734,0,0,1,8.784,8.784V9.691A20.891,20.891,0,0,0,14.727,5Z" transform="translate(-2.618 -2.9)" fill="none"/>
      <path id="패스_3164" data-name="패스 3164" d="M16.94,5A22.491,22.491,0,0,1,19.1,7.163V5Z" transform="translate(-2.303 -2.9)" fill="none"/>
      <path id="패스_3165" data-name="패스 3165" d="M14.882,21h0Z" transform="translate(-2.406 -2.1)"/>
      <path id="패스_3166" data-name="패스 3166" d="M19.8,3H5.1a2.076,2.076,0,0,0-1.088.314,2.1,2.1,0,0,0-.986,1.525A2.162,2.162,0,0,0,3,5.1V19.8a2.106,2.106,0,0,0,2.1,2.1H19.8a2.162,2.162,0,0,0,.261-.026,2.1,2.1,0,0,0,1.525-.986A2.076,2.076,0,0,0,21.9,19.8V5.1A2.106,2.106,0,0,0,19.8,3ZM5.1,19.8V9.615A12.488,12.488,0,0,1,15.285,19.8Zm14.7,0H16.877A14.058,14.058,0,0,0,5.1,8.024V5.1h.779A17.081,17.081,0,0,1,19.8,19.02Zm0-5.916A18.734,18.734,0,0,0,11.016,5.1h4.093A20.891,20.891,0,0,1,19.8,9.791Zm0-6.621A22.491,22.491,0,0,0,17.637,5.1H19.8Z" transform="translate(-3 -3)" fill="#e0f2f1"/>
    </g>
  </g>
</svg>
