<svg id="opcua" xmlns="http://www.w3.org/2000/svg" width="42" height="42" viewBox="0 0 42 42">
  <rect id="사각형_18972" data-name="사각형 18972" width="42" height="42" rx="4" fill="#fff3e0"/>
  <g id="사각형_18973" data-name="사각형 18973" transform="translate(2.1 2.1)" fill="#fb8002" stroke="#f47001" stroke-width="1">
    <rect width="37.8" height="37.8" rx="4" stroke="none"/>
    <rect x="-0.5" y="-0.5" width="38.8" height="38.8" rx="4.5" fill="none"/>
  </g>
  <path id="빼기_18" data-name="빼기 18" d="M32.57,36.57H2.77A3.975,3.975,0,0,1-.059,35.4L35.4-.059A3.974,3.974,0,0,1,36.57,2.77v29.8A4,4,0,0,1,32.57,36.57Z" transform="translate(3.33 3.33)" fill="#ff8d02"/>
  <g id="그룹_6050" data-name="그룹 6050" transform="translate(8.4 8.4)">
    <g id="그룹_5541" data-name="그룹 5541" transform="translate(0 0)">
      <rect id="사각형_18765" data-name="사각형 18765" width="25.2" height="25.2" fill="none"/>
    </g>
    <g id="그룹_5542" data-name="그룹 5542" transform="translate(0 7.719)">
      <path id="패스_3167" data-name="패스 3167" d="M13.522,11.714H13.18V10.051H13.5c.564,0,1.269.041,1.269.786,0,.776-.655.877-1.25.877m7.285.524a1.852,1.852,0,0,1,1.874-1.844,3.1,3.1,0,0,1,2.025.957l-.1-3.607A7.158,7.158,0,0,0,22.3,7.351,4.895,4.895,0,0,0,17.956,9.92a3.515,3.515,0,0,0-3.729-2.569H9.865v9.642H13.18V14.112h1.753a3.057,3.057,0,0,0,2.458-1.048,4.734,4.734,0,0,0,4.756,4.05,7.655,7.655,0,0,0,2.448-.373l.1-3.536a2.723,2.723,0,0,1-1.974.877,1.874,1.874,0,0,1-1.915-1.844" transform="translate(0.493 -7.351)" fill="#fff3e0"/>
      <path id="패스_3168" data-name="패스 3168" d="M5.2,7.394C1.884,7.394,0,9.553,0,12.216s1.6,4.821,5.2,4.821,5.2-2.158,5.2-4.821S8.514,7.394,5.2,7.394Zm0,6.72A1.816,1.816,0,1,1,6.973,12.3,1.795,1.795,0,0,1,5.2,14.114Z" transform="translate(0 -7.349)" fill="#fff3e0"/>
    </g>
  </g>
</svg>
