<svg id="opcua-gray" xmlns="http://www.w3.org/2000/svg" width="43" height="43" viewBox="0 0 43 43">
  <rect id="사각형_18972" data-name="사각형 18972" width="43" height="43" rx="4" fill="#fafafa"/>
  <g id="사각형_18973" data-name="사각형 18973" transform="translate(2.15 2.15)" fill="#6a6a6a" stroke="#565656" stroke-width="1">
    <rect width="38.7" height="38.7" rx="4" stroke="none"/>
    <rect x="-0.5" y="-0.5" width="39.7" height="39.7" rx="4.5" fill="none"/>
  </g>
  <path id="빼기_18" data-name="빼기 18" d="M33.5,37.5H2.8A3.973,3.973,0,0,1-.028,36.329L36.329-.028A3.973,3.973,0,0,1,37.5,2.8V33.5A4.005,4.005,0,0,1,33.5,37.5Z" transform="translate(3.349 3.349)" fill="#949394" opacity="0.5"/>
  <g id="그룹_6050" data-name="그룹 6050" transform="translate(8.6 8.6)">
    <g id="그룹_5541" data-name="그룹 5541" transform="translate(0 0)">
      <rect id="사각형_18765" data-name="사각형 18765" width="25.8" height="25.8" fill="none"/>
    </g>
    <g id="그룹_5542" data-name="그룹 5542" transform="translate(0 7.903)">
      <path id="패스_3167" data-name="패스 3167" d="M13.609,11.818h-.35v-1.7h.33c.577,0,1.3.042,1.3.805,0,.794-.671.9-1.279.9m7.458.536a1.9,1.9,0,0,1,1.919-1.888,3.171,3.171,0,0,1,2.074.979l-.1-3.693a7.329,7.329,0,0,0-2.362-.4,5.011,5.011,0,0,0-4.446,2.631,3.6,3.6,0,0,0-3.817-2.631H9.865v9.872h3.394v-2.95h1.8A3.129,3.129,0,0,0,17.571,13.2a4.847,4.847,0,0,0,4.87,4.146,7.837,7.837,0,0,0,2.506-.382l.1-3.621a2.788,2.788,0,0,1-2.021.9,1.919,1.919,0,0,1-1.961-1.888" transform="translate(0.74 -7.351)" fill="#fafafa"/>
      <path id="패스_3168" data-name="패스 3168" d="M5.323,7.394C1.929,7.394,0,9.6,0,12.33s1.635,4.935,5.323,4.935,5.322-2.209,5.322-4.935S8.717,7.394,5.323,7.394Zm0,6.88a1.86,1.86,0,1,1,1.816-1.859A1.837,1.837,0,0,1,5.323,14.274Z" transform="translate(0 -7.348)" fill="#fafafa"/>
    </g>
  </g>
</svg>
