<svg xmlns="http://www.w3.org/2000/svg" width="23.999" height="24" viewBox="0 0 23.999 24">
  <g id="그룹_2457" data-name="그룹 2457" transform="translate(-1298.4 648.572)">
    <g id="그룹_1783" data-name="그룹 1783" transform="translate(1298.4 -648.572)">
      <path id="패스_2353" data-name="패스 2353" d="M1322.4-634.855v-3.434l-2.986-.676v.018a9.258,9.258,0,0,0-.964-2.323l.016.016,1.633-2.589-2.428-2.428-2.589,1.633.016.016a9.266,9.266,0,0,0-2.323-.964h.018l-.676-2.986h-3.434l-.676,2.986h.018a9.274,9.274,0,0,0-2.323.964l.016-.016-2.589-1.633-2.428,2.428,1.633,2.589.016-.016a9.26,9.26,0,0,0-.964,2.323v-.018l-2.986.676v3.434l2.986.676v-.018a9.257,9.257,0,0,0,.964,2.323l-.016-.016L1300.7-629.3l2.428,2.428,2.589-1.633-.016-.016a9.272,9.272,0,0,0,2.322.964h-.018l.676,2.986h3.434l.676-2.986h-.017a9.265,9.265,0,0,0,2.323-.964l-.016.016,2.589,1.633,2.428-2.428-1.633-2.589-.016.016a9.253,9.253,0,0,0,.964-2.323v.018Zm-6.641-1.571a6.286,6.286,0,0,1-1.631,4.135,12.392,12.392,0,0,1-3.487,2.652v-1.573h-.24a5.325,5.325,0,0,1-3.79-1.57,5.325,5.325,0,0,1-1.57-3.79,5.325,5.325,0,0,1,1.57-3.79,5.325,5.325,0,0,1,3.79-1.57,5.331,5.331,0,0,1,3.742,1.523,5.332,5.332,0,0,1,1.616,3.692c0,.048,0,.1,0,.145S1315.759-636.475,1315.759-636.426Z" transform="translate(-1298.4 648.572)" fill="#fff"/>
    </g>
    <path id="패스_2354" data-name="패스 2354" d="M1490.3-462.275h-5.6v1.44h2.08v5.36h1.44v-5.36h2.08Z" transform="translate(-177.102 -177.097)" fill="#fff"/>
  </g>
</svg>
